<svg xmlns="http://www.w3.org/2000/svg" viewBox="0 0 30 30"><g id="Layer_2" data-name="Layer 2"><g id="Content"><g id="homeqr"><polygon points="22.2 27.75 19.05 27.75 19.05 19.05 22.2 19.05 22.2 16.8 16.8 16.8 16.8 30 22.2 30 22.2 27.75"/><polygon points="24.6 16.8 24.6 19.05 27.75 19.05 27.75 22.3 30 22.3 30 16.8 24.6 16.8"/><polygon points="27.75 27.75 24.6 27.75 24.6 30 29.14 30 30 29.14 30 24.7 27.75 24.7 27.75 27.75"/><path d="M0,.86V13.2H13.2V0H.86ZM2.25,2.25H11V11H2.25Z"/><rect x="5.4" y="5.4" width="2.4" height="2.4"/><path d="M29.14,0H16.8V13.2H30V.86ZM27.75,2.25V11h-8.7V2.25Z"/><rect x="22.2" y="5.4" width="2.4" height="2.4"/><rect x="22.2" y="22.2" width="2.4" height="2.4"/><path d="M.86,30H13.2V16.8H0V29.14Zm1.39-2.25v-8.7H11v8.7Z"/><rect x="5.4" y="22.2" width="2.4" height="2.4"/></g></g></g></svg>