<svg xmlns="http://www.w3.org/2000/svg" viewBox="0 0 30 30"><g id="Layer_2" data-name="Layer 2"><g id="Content"><path id="search" d="M29.82,26.19l-7.51-7.52a11.72,11.72,0,0,0,2-6.54A11.69,11.69,0,0,0,20.7,3.56,11.69,11.69,0,0,0,12.13,0,11.69,11.69,0,0,0,3.56,3.56,11.69,11.69,0,0,0,0,12.13,11.69,11.69,0,0,0,3.56,20.7a11.69,11.69,0,0,0,8.57,3.56,11.72,11.72,0,0,0,6.54-2l7.52,7.52a.68.68,0,0,0,.9,0l2.73-2.74a.64.64,0,0,0,.18-.45A.66.66,0,0,0,29.82,26.19ZM18,18a7.93,7.93,0,0,1-5.85,2.42A8,8,0,0,1,6.27,18a7.94,7.94,0,0,1-2.44-5.84A7.94,7.94,0,0,1,6.27,6.29a8,8,0,0,1,5.86-2.43A8,8,0,0,1,18,6.28a8,8,0,0,1,2.42,5.85A8,8,0,0,1,18,18Z"/></g></g></svg>